<svg width="28" height="28" viewBox="0 0 28 28" fill="none" xmlns="http://www.w3.org/2000/svg">
<path fill-rule="evenodd" clip-rule="evenodd" d="M2.5919 8.29594C2.59189 6.53778 1.79472 4.96429 0.542404 3.91768C-0.0760687 3.39793 -0.180194 2.48536 0.305291 1.83961C0.741088 1.25814 1.25815 0.741077 1.83959 0.305327C2.48529 -0.18024 3.3979 -0.0760562 3.91764 0.542394C4.96431 1.79469 6.53777 2.59188 8.29594 2.59188H19.7041C21.4622 2.59188 23.0357 1.79469 24.0823 0.542394C24.6021 -0.0760562 25.5146 -0.18024 26.1604 0.305327C26.7419 0.741077 27.2589 1.25814 27.6947 1.83961C28.1802 2.48536 28.0761 3.39793 27.4576 3.91768C26.2053 4.96429 25.4081 6.53778 25.4081 8.29594V19.7041C25.4081 21.4622 26.2053 23.0357 27.4576 24.0824C28.0761 24.6021 28.1802 25.5147 27.6947 26.1604C27.2589 26.7418 26.7419 27.2589 26.1604 27.6947C25.5146 28.1802 24.6021 28.0761 24.0823 27.4576C23.0357 26.2053 21.4622 25.4081 19.7041 25.4081H8.29594C6.53777 25.4081 4.96433 26.2053 3.91764 27.4576C3.3979 28.0761 2.48529 28.1802 1.8396 27.6947C1.25815 27.2589 0.741088 26.7418 0.305291 26.1604C-0.180205 25.5147 -0.0760804 24.6021 0.542393 24.0824C1.79472 23.0357 2.59189 21.4622 2.5919 19.7041V8.29594ZM21 8.0661C21 7.47769 20.5223 7 19.9339 7H8.0661C7.47771 7 7 7.47769 7 8.0661V19.9339C7 20.5223 7.47771 21 8.0661 21H19.9339C20.5223 21 21 20.5223 21 19.9339V8.0661Z" fill="black"/>
</svg>
